<svg xmlns="http://www.w3.org/2000/svg" width="500" height="500" viewBox="0 0 500 500">
<g fill="#e59e17" stroke="none">
  <path d="M 207 381 Z" />
  <path d="M 258 379 L 259 379 Z" />
  <path d="M 295 366 L 295 377 L 297 376 L 296 375 L 296 371 L 297 370 L 298 371 L 299 377 L 302 377 L 302 373 L 303 372 L 304 373 L 304 377 L 315 377 L 315 376 L 311 376 L 310 375 L 311 373 L 315 373 L 315 371 L 311 371 L 310 370 L 311 368 L 316 368 L 315 366 L 309 366 L 308 367 L 306 366 L 303 366 L 302 368 L 302 371 L 300 373 L 299 372 L 298 366 Z" />
  <path d="M 286 366 L 285 367 L 284 367 L 282 369 L 282 374 L 283 375 L 283 376 L 284 377 L 290 377 L 291 376 L 292 376 L 292 373 L 293 372 L 293 371 L 292 370 L 292 369 L 289 366 Z" />
  <path d="M 272 366 L 271 367 L 271 377 L 273 377 L 273 374 L 274 373 L 277 373 L 278 374 L 278 377 L 281 377 L 280 376 L 280 368 L 281 367 L 280 366 L 279 366 L 278 367 L 278 370 L 277 371 L 274 371 L 273 370 L 273 366 Z" />
  <path d="M 266 366 L 258 366 L 257 367 L 257 368 L 260 368 L 261 369 L 261 377 L 262 378 L 263 377 L 263 372 L 262 371 L 263 370 L 263 369 L 264 368 L 266 368 Z" />
  <path d="M 252 366 L 251 366 L 250 367 L 250 369 L 249 370 L 249 372 L 248 373 L 248 375 L 247 376 L 247 378 L 248 377 L 249 377 L 249 376 L 250 375 L 253 375 L 254 376 L 254 377 L 257 377 L 256 376 L 256 375 L 255 374 L 255 372 L 254 371 L 254 369 L 253 368 L 253 367 Z" />
  <path d="M 235 366 L 233 368 L 233 370 L 234 371 L 234 372 L 237 372 L 238 373 L 239 373 L 240 374 L 240 375 L 239 376 L 237 376 L 235 374 L 233 374 L 233 376 L 234 376 L 235 377 L 241 377 L 242 376 L 242 374 L 241 373 L 241 372 L 240 372 L 239 371 L 237 371 L 235 369 L 236 368 L 238 368 L 239 369 L 241 369 L 241 368 L 240 367 L 240 366 Z" />
  <path d="M 225 366 L 224 367 L 224 377 L 231 377 L 231 376 L 227 376 L 226 375 L 226 374 L 227 373 L 230 373 L 231 372 L 231 371 L 227 371 L 226 370 L 226 369 L 227 368 L 231 368 L 231 366 Z" />
  <path d="M 209 366 L 209 368 L 210 369 L 210 371 L 211 372 L 211 374 L 212 375 L 212 377 L 215 377 L 215 376 L 216 375 L 216 373 L 217 372 L 217 370 L 219 367 L 220 368 L 220 377 L 221 378 L 222 377 L 222 367 L 221 366 L 220 366 L 219 367 L 218 366 L 217 366 L 216 367 L 216 370 L 215 371 L 215 373 L 214 374 L 212 371 L 212 369 L 211 368 L 211 367 L 210 366 Z" />
  <path d="M 199 367 L 198 368 L 198 369 L 197 370 L 197 373 L 198 374 L 198 376 L 199 376 L 200 377 L 206 377 L 207 376 L 207 374 L 208 373 L 208 370 L 207 369 L 207 368 L 206 367 L 205 367 L 204 366 L 201 366 L 200 367 Z" />
  <path d="M 184 366 L 184 377 L 186 377 L 186 374 L 187 373 L 188 374 L 188 377 L 191 377 L 191 375 L 192 374 L 192 372 L 193 371 L 194 372 L 194 377 L 196 377 L 195 376 L 195 368 L 196 367 L 195 366 L 193 366 L 192 367 L 192 368 L 191 369 L 191 372 L 190 373 L 188 370 L 188 367 L 187 366 Z" />
  <path d="M 132 272 Z" />
  <path d="M 235 232 Z" />
  <path d="M 163 224 Z" />
  <path d="M 226 255 L 228 273 L 239 281 L 262 276 L 272 255 L 284 281 L 304 281 L 306 238 L 331 246 L 346 241 L 346 281 L 355 281 L 355 205 L 347 205 L 343 239 L 321 233 L 305 236 L 304 205 L 295 206 L 294 281 L 260 205 L 250 205 Z" />
  <path d="M 159 204 L 132 281 L 141 281 L 159 209 L 173 245 L 161 281 L 170 281 L 175 255 L 185 281 L 194 281 L 179 239 L 188 209 L 213 279 L 223 281 L 197 205 L 187 205 L 178 232 L 168 205 Z" />
  <path d="M 345 203 Z" />
  <path d="M 199 203 Z" />
</g>
</svg>